<svg width="360" height="240" viewBox="0 0 360 240" fill="none" xmlns="http://www.w3.org/2000/svg">
<g clip-path="url(#clip0_873:1569)">
<line x1="60" y1="60.5" x2="60" y2="89.5" stroke="#DADCE0" stroke-linecap="square"/>
<line x1="0.5" y1="60" x2="59.5" y2="60" stroke="#DADCE0" stroke-linecap="square"/>
<line x1="0.5" y1="119.5" x2="119.5" y2="119.5" stroke="#DADCE0" stroke-linecap="square"/>
<line x1="119.5" y1="0.5" x2="119.5" y2="59.5" stroke="#DADCE0" stroke-linecap="square"/>
<path d="M59.6 0C59.6 32.9162 32.9162 59.6 0 59.6" stroke="#DADCE0"/>
<path d="M119.5 60C119.5 27.1391 92.8609 0.5 60 0.5" stroke="#DADCE0"/>
<path d="M0.5 120C0.5 87.1391 27.1391 60.5 60 60.5" stroke="#DADCE0"/>
<circle cx="90.1" cy="90.1" r="29.5" stroke="#DADCE0"/>
<line x1="180" y1="59.5" x2="180" y2="30.5" stroke="#DADCE0" stroke-linecap="square"/>
<line x1="239.5" y1="60" x2="180.5" y2="60" stroke="#DADCE0" stroke-linecap="square"/>
<line x1="239.5" y1="0.5" x2="120.5" y2="0.5" stroke="#DADCE0" stroke-linecap="square"/>
<line x1="120.5" y1="119.5" x2="120.5" y2="60.5" stroke="#DADCE0" stroke-linecap="square"/>
<path d="M180.4 120C180.4 87.0838 207.084 60.4 240 60.4" stroke="#DADCE0"/>
<path d="M120.5 60C120.5 92.8609 147.139 119.5 180 119.5" stroke="#DADCE0"/>
<path d="M239.5 -4.76837e-07C239.5 32.8609 212.861 59.5 180 59.5" stroke="#DADCE0"/>
<circle cx="149.9" cy="29.9" r="29.5" transform="rotate(-180 149.9 29.9)" stroke="#DADCE0"/>
<line x1="300" y1="60.5" x2="300" y2="89.5" stroke="#DADCE0" stroke-linecap="square"/>
<line x1="240.5" y1="60" x2="299.5" y2="60" stroke="#DADCE0" stroke-linecap="square"/>
<line x1="240.5" y1="119.5" x2="359.5" y2="119.5" stroke="#DADCE0" stroke-linecap="square"/>
<line x1="359.5" y1="0.5" x2="359.5" y2="59.5" stroke="#DADCE0" stroke-linecap="square"/>
<path d="M299.6 0C299.6 32.9162 272.916 59.6 240 59.6" stroke="#DADCE0"/>
<path d="M359.5 60C359.5 27.1391 332.861 0.5 300 0.5" stroke="#DADCE0"/>
<path d="M240.5 120C240.5 87.1391 267.139 60.5 300 60.5" stroke="#DADCE0"/>
<circle cx="330.1" cy="90.1" r="29.5" stroke="#DADCE0"/>
<line x1="0.5" y1="-0.5" x2="29.5" y2="-0.5" transform="matrix(4.37114e-08 1 1 -4.37114e-08 60.5 180)" stroke="#DADCE0" stroke-linecap="square"/>
<line x1="0.5" y1="-0.5" x2="59.5" y2="-0.5" transform="matrix(-1 0 0 1 120 180.5)" stroke="#DADCE0" stroke-linecap="square"/>
<line x1="0.5" y1="-0.5" x2="119.5" y2="-0.5" transform="matrix(-1 0 0 1 120 240)" stroke="#DADCE0" stroke-linecap="square"/>
<line x1="0.5" y1="-0.5" x2="59.5" y2="-0.5" transform="matrix(4.37114e-08 1 1 -4.37114e-08 1 120)" stroke="#DADCE0" stroke-linecap="square"/>
<path d="M60.4 120C60.4 152.916 87.0838 179.6 120 179.6" stroke="#DADCE0"/>
<path d="M0.5 180C0.5 147.139 27.1391 120.5 60 120.5" stroke="#DADCE0"/>
<path d="M119.5 240C119.5 207.139 92.8609 180.5 60 180.5" stroke="#DADCE0"/>
<circle r="29.5" transform="matrix(-1 0 0 1 29.9 210.1)" stroke="#DADCE0"/>
<line x1="0.5" y1="-0.5" x2="29.5" y2="-0.5" transform="matrix(-4.37114e-08 -1 -1 4.37114e-08 179.5 180)" stroke="#DADCE0" stroke-linecap="square"/>
<line x1="0.5" y1="-0.5" x2="59.5" y2="-0.5" transform="matrix(1 0 0 -1 120 179.5)" stroke="#DADCE0" stroke-linecap="square"/>
<line x1="0.5" y1="-0.5" x2="119.5" y2="-0.5" transform="matrix(1 0 0 -1 120 120)" stroke="#DADCE0" stroke-linecap="square"/>
<line x1="0.5" y1="-0.5" x2="59.5" y2="-0.5" transform="matrix(-4.37114e-08 -1 -1 4.37114e-08 239 240)" stroke="#DADCE0" stroke-linecap="square"/>
<path d="M179.6 240C179.6 207.084 152.916 180.4 120 180.4" stroke="#DADCE0"/>
<path d="M239.5 180C239.5 212.861 212.861 239.5 180 239.5" stroke="#DADCE0"/>
<path d="M120.5 120C120.5 152.861 147.139 179.5 180 179.5" stroke="#DADCE0"/>
<circle r="29.5" transform="matrix(1 0 0 -1 210.1 149.9)" stroke="#DADCE0"/>
<line x1="0.5" y1="-0.5" x2="29.5" y2="-0.5" transform="matrix(4.37114e-08 1 1 -4.37114e-08 300.5 180)" stroke="#DADCE0" stroke-linecap="square"/>
<line x1="0.5" y1="-0.5" x2="59.5" y2="-0.5" transform="matrix(-1 0 0 1 360 180.5)" stroke="#DADCE0" stroke-linecap="square"/>
<line x1="0.5" y1="-0.5" x2="119.5" y2="-0.5" transform="matrix(-1 0 0 1 360 240)" stroke="#DADCE0" stroke-linecap="square"/>
<line x1="0.5" y1="-0.5" x2="59.5" y2="-0.5" transform="matrix(4.37114e-08 1 1 -4.37114e-08 241 120)" stroke="#DADCE0" stroke-linecap="square"/>
<path d="M300.4 120C300.4 152.916 327.084 179.6 360 179.6" stroke="#DADCE0"/>
<path d="M240.5 180C240.5 147.139 267.139 120.5 300 120.5" stroke="#DADCE0"/>
<path d="M359.5 240C359.5 207.139 332.861 180.5 300 180.5" stroke="#DADCE0"/>
<circle r="29.5" transform="matrix(-1 0 0 1 269.9 210.1)" stroke="#DADCE0"/>
<rect x="60" y="40" width="240" height="160" fill="white" stroke="#5F6368"/>
<rect x="64.5" y="164.5" width="111" height="31" rx="2.5" fill="#FFDDEE" stroke="#FF66CC"/>
<rect x="184.5" y="44.5" width="111" height="31" rx="2.5" fill="#CCEEFF" stroke="#66CCFF"/>
<rect x="184.5" y="84.5" width="71" height="111" rx="2.5" fill="#FFEEDD" stroke="#FFCC66"/>
<rect x="264.5" y="84.5" width="31" height="31" rx="2.5" fill="#FFDDFF" stroke="#CC66FF"/>
<rect x="264.5" y="124.5" width="31" height="31" rx="2.5" fill="#FFDDFF" stroke="#CC66FF"/>
<path d="M100 76V80M100 84V80M100 80H96H104" stroke="#5F6368"/>
<path d="M140 76V80M140 84V80M140 80H136H144" stroke="#5F6368"/>
<path d="M180 76V80M180 84V80M180 80H176H184" stroke="#5F6368"/>
<path d="M220 76V80M220 84V80M220 80H216H224" stroke="#5F6368"/>
<path d="M260 76V80M260 84V80M260 80H256H264" stroke="#5F6368"/>
<path d="M100 116V120M100 124V120M100 120H96H104" stroke="#5F6368"/>
<path d="M140 116V120M140 124V120M140 120H136H144" stroke="#5F6368"/>
<path d="M180 116V120M180 124V120M180 120H176H184" stroke="#5F6368"/>
<path d="M220 116V120M220 124V120M220 120H216H224" stroke="#5F6368"/>
<path d="M260 116V120M260 124V120M260 120H256H264" stroke="#5F6368"/>
<path d="M100 156V160M100 164V160M100 160H96H104" stroke="#5F6368"/>
<path d="M140 156V160M140 164V160M140 160H136H144" stroke="#5F6368"/>
<path d="M180 156V160M180 164V160M180 160H176H184" stroke="#5F6368"/>
<path d="M220 156V160M220 164V160M220 160H216H224" stroke="#5F6368"/>
<path d="M260 156V160M260 164V160M260 160H256H264" stroke="#5F6368"/>
<rect x="276.5" y="176.5" width="31" height="31" fill="#FFDDFF" fill-opacity="0.4" stroke="#CC66FF"/>
<rect x="48.5" y="28.5" width="111" height="111" fill="#DDEEDD" fill-opacity="0.4" stroke="#99DD33"/>
<path fill-rule="evenodd" clip-rule="evenodd" d="M49 32C50.6569 32 52 30.6569 52 29C52 27.3431 50.6569 26 49 26C47.3431 26 46 27.3431 46 29C46 30.6569 47.3431 32 49 32ZM160 143C161.657 143 163 141.657 163 140C163 138.343 161.657 137 160 137C158.343 137 157 138.343 157 140C157 141.657 158.343 143 160 143ZM163 29C163 30.6569 161.657 32 160 32C158.343 32 157 30.6569 157 29C157 27.3431 158.343 26 160 26C161.657 26 163 27.3431 163 29ZM49 143C50.6569 143 52 141.657 52 140C52 138.343 50.6569 137 49 137C47.3431 137 46 138.343 46 140C46 141.657 47.3431 143 49 143Z" fill="white"/>
<path d="M51.5 29C51.5 30.3807 50.3807 31.5 49 31.5V32.5C50.933 32.5 52.5 30.933 52.5 29H51.5ZM49 26.5C50.3807 26.5 51.5 27.6193 51.5 29H52.5C52.5 27.067 50.933 25.5 49 25.5V26.5ZM46.5 29C46.5 27.6193 47.6193 26.5 49 26.5V25.5C47.067 25.5 45.5 27.067 45.5 29H46.5ZM49 31.5C47.6193 31.5 46.5 30.3807 46.5 29H45.5C45.5 30.933 47.067 32.5 49 32.5V31.5ZM162.5 140C162.5 141.381 161.381 142.5 160 142.5V143.5C161.933 143.5 163.5 141.933 163.5 140H162.5ZM160 137.5C161.381 137.5 162.5 138.619 162.5 140H163.5C163.5 138.067 161.933 136.5 160 136.5V137.5ZM157.5 140C157.5 138.619 158.619 137.5 160 137.5V136.5C158.067 136.5 156.5 138.067 156.5 140H157.5ZM160 142.5C158.619 142.5 157.5 141.381 157.5 140H156.5C156.5 141.933 158.067 143.5 160 143.5V142.5ZM160 32.5C161.933 32.5 163.5 30.933 163.5 29H162.5C162.5 30.3807 161.381 31.5 160 31.5V32.5ZM156.5 29C156.5 30.933 158.067 32.5 160 32.5V31.5C158.619 31.5 157.5 30.3807 157.5 29H156.5ZM160 25.5C158.067 25.5 156.5 27.067 156.5 29H157.5C157.5 27.6193 158.619 26.5 160 26.5V25.5ZM163.5 29C163.5 27.067 161.933 25.5 160 25.5V26.5C161.381 26.5 162.5 27.6193 162.5 29H163.5ZM51.5 140C51.5 141.381 50.3807 142.5 49 142.5V143.5C50.933 143.5 52.5 141.933 52.5 140H51.5ZM49 137.5C50.3807 137.5 51.5 138.619 51.5 140H52.5C52.5 138.067 50.933 136.5 49 136.5V137.5ZM46.5 140C46.5 138.619 47.6193 137.5 49 137.5V136.5C47.067 136.5 45.5 138.067 45.5 140H46.5ZM49 142.5C47.6193 142.5 46.5 141.381 46.5 140H45.5C45.5 141.933 47.067 143.5 49 143.5V142.5Z" fill="#5F6368"/>
<path fill-rule="evenodd" clip-rule="evenodd" d="M276 179C277.657 179 279 177.657 279 176C279 174.343 277.657 173 276 173C274.343 173 273 174.343 273 176C273 177.657 274.343 179 276 179ZM308 211C309.657 211 311 209.657 311 208C311 206.343 309.657 205 308 205C306.343 205 305 206.343 305 208C305 209.657 306.343 211 308 211ZM311 176C311 177.657 309.657 179 308 179C306.343 179 305 177.657 305 176C305 174.343 306.343 173 308 173C309.657 173 311 174.343 311 176ZM276 211C277.657 211 279 209.657 279 208C279 206.343 277.657 205 276 205C274.343 205 273 206.343 273 208C273 209.657 274.343 211 276 211Z" fill="white"/>
<path d="M278.5 176C278.5 177.381 277.381 178.5 276 178.5V179.5C277.933 179.5 279.5 177.933 279.5 176H278.5ZM276 173.5C277.381 173.5 278.5 174.619 278.5 176H279.5C279.5 174.067 277.933 172.5 276 172.5V173.5ZM273.5 176C273.5 174.619 274.619 173.5 276 173.5V172.5C274.067 172.5 272.5 174.067 272.5 176H273.5ZM276 178.5C274.619 178.5 273.5 177.381 273.5 176H272.5C272.5 177.933 274.067 179.5 276 179.5V178.5ZM310.5 208C310.5 209.381 309.381 210.5 308 210.5V211.5C309.933 211.5 311.5 209.933 311.5 208H310.5ZM308 205.5C309.381 205.5 310.5 206.619 310.5 208H311.5C311.5 206.067 309.933 204.5 308 204.5V205.5ZM305.5 208C305.5 206.619 306.619 205.5 308 205.5V204.5C306.067 204.5 304.5 206.067 304.5 208H305.5ZM308 210.5C306.619 210.5 305.5 209.381 305.5 208H304.5C304.5 209.933 306.067 211.5 308 211.5V210.5ZM308 179.5C309.933 179.5 311.5 177.933 311.5 176H310.5C310.5 177.381 309.381 178.5 308 178.5V179.5ZM304.5 176C304.5 177.933 306.067 179.5 308 179.5V178.5C306.619 178.5 305.5 177.381 305.5 176H304.5ZM308 172.5C306.067 172.5 304.5 174.067 304.5 176H305.5C305.5 174.619 306.619 173.5 308 173.5V172.5ZM311.5 176C311.5 174.067 309.933 172.5 308 172.5V173.5C309.381 173.5 310.5 174.619 310.5 176H311.5ZM278.5 208C278.5 209.381 277.381 210.5 276 210.5V211.5C277.933 211.5 279.5 209.933 279.5 208H278.5ZM276 205.5C277.381 205.5 278.5 206.619 278.5 208H279.5C279.5 206.067 277.933 204.5 276 204.5V205.5ZM273.5 208C273.5 206.619 274.619 205.5 276 205.5V204.5C274.067 204.5 272.5 206.067 272.5 208H273.5ZM276 210.5C274.619 210.5 273.5 209.381 273.5 208H272.5C272.5 209.933 274.067 211.5 276 211.5V210.5Z" fill="#5F6368"/>
</g>
<defs>
<clipPath id="clip0_873:1569">
<path d="M0 3C0 1.34314 1.34315 0 3 0H357C358.657 0 360 1.34315 360 3V237C360 238.657 358.657 240 357 240H3C1.34314 240 0 238.657 0 237V3Z" fill="white"/>
</clipPath>
</defs>
</svg>
